<?xml version="1.0" standalone="no"?>
<!DOCTYPE svg PUBLIC "-//W3C//DTD SVG 20010904//EN"
 "http://www.w3.org/TR/2001/REC-SVG-20010904/DTD/svg10.dtd">
<svg version="1.0" xmlns="http://www.w3.org/2000/svg"
 width="16.000000pt" height="16.000000pt" viewBox="0 0 16.000000 16.000000"
 preserveAspectRatio="xMidYMid meet">
<metadata>
Created by potrace 1.11, written by Peter Selinger 2001-2013
</metadata>
<g transform="translate(0.000000,16.000000) scale(0.002286,-0.002286)"
fill="#000000" stroke="none">
<path d="M0 3500 l0 -3500 3500 0 3500 0 0 3500 0 3500 -3500 0 -3500 0 0
-3500z m6768 3 l-3 -3268 -3267 -3 -3268 -2 0 3270 0 3270 3270 0 3270 0 -2
-3267z"/>
<path d="M630 3503 c0 -1542 3 -2804 8 -2804 4 -1 107 -2 230 -3 l222 -1 1 35
c0 46 0 5517 0 5550 l-1 25 -230 0 -230 0 0 -2802z"/>
<path d="M1365 6280 l-40 -5 0 -222 c0 -122 3 -224 6 -228 4 -3 473 -6 1043
-6 l1036 -1 0 -1044 0 -1044 -1043 0 -1042 0 0 -230 0 -230 1042 0 1043 0 0
-1044 0 -1043 -1033 0 c-569 0 -1038 -2 -1043 -6 -10 -6 -13 -442 -2 -452 8
-8 2528 -9 2536 0 8 8 9 5534 1 5547 -6 10 -2424 18 -2504 8z"/>
<path d="M4140 6280 l-35 -5 0 -227 0 -228 30 0 c17 0 420 -1 898 -1 808 0
867 -1 868 -17 1 -21 1 -4581 0 -4603 -1 -15 -81 -16 -878 -17 -483 0 -887 -1
-898 -1 -19 -1 -20 -8 -20 -231 l0 -230 25 0 c34 -1 2099 -1 2175 -1 l61 1 -1
2774 c0 1526 -3 2777 -7 2781 -7 8 -2165 13 -2218 5z"/>
</g>
</svg>
