<?xml version="1.0" encoding="utf-8"?>
<!-- Generator: Adobe Illustrator 21.1.0, SVG Export Plug-In . SVG Version: 6.00 Build 0)  -->
<svg version="1.1" id="svg8" xmlns="http://www.w3.org/2000/svg" xmlns:xlink="http://www.w3.org/1999/xlink" x="0px" y="0px"
	 width="527.2px" height="191.7px" viewBox="0 0 527.2 191.7" style="enable-background:new 0 0 527.2 191.7;" xml:space="preserve"
	>
<style type="text/css">
	.st0{fill:#E8E8E8;}
</style>
<title>logo</title>
<g id="layer1">
	<g id="text12">
		<g>
			<path class="st0" d="M0,144.1V7.6h49c17.6,0,30.9,3.2,40.1,9.7c9.2,6.4,13.7,15.8,13.7,28c0,7.1-1.6,13.1-4.9,18.1
				c-3.4,5.2-8.5,9-14.3,11.1c7.1,1.9,12.6,5.4,16.4,10.5c3.8,5.1,5.7,11.4,5.7,18.8c0,13.4-4.2,23.4-12.7,30.1
				c-8.5,6.7-21,10.1-37.6,10.3H0z M32.9,64.5h17.2c7.2-0.1,12.3-1.4,15.4-3.9C68.5,58,70,54.2,70,49.2c0-5.8-1.7-9.9-5-12.5
				c-3.3-2.5-8.7-3.8-16-3.8H32.9V64.5z M32.9,86.1v32.7h21.6c5.9,0,10.5-1.4,13.7-4.1c3.2-2.7,4.8-6.5,4.8-11.5
				c0-11.4-5.7-17.1-17-17.2H32.9z"/>
			<path class="st0" d="M118.4,92.4c-0.2-9.4,1.9-18.6,5.9-27c3.7-7.6,9.6-14,17-18.2c7.4-4.2,16-6.4,26-6.4
				c15.2,0,27.2,4.7,35.9,14.1c8.7,9.4,13.1,22.2,13.1,38.4v1.1c0,15.8-4.4,28.4-13.2,37.6c-8.8,9.3-20.7,13.9-35.7,13.9
				c-14.4,0-26-4.3-34.8-13c-8.8-8.7-13.5-20.4-14.2-35.2L118.4,92.4z M150,94.4c0,9.4,1.5,16.3,4.4,20.6c2.9,4.4,7.3,6.6,13,6.6
				c11.3,0,17-8.7,17.3-26v-3.2c0-18.2-5.8-27.3-17.4-27.3c-10.6,0-16.3,7.8-17.2,23.5L150,94.4z"/>
			<path class="st0" d="M269.3,99.8l16.9-57.2h33.8l-41.3,118.4l-1.8,4.3c-5.9,13.1-16.3,19.7-31.1,19.7c-4.4,0-8.8-0.7-13-1.9
				v-22.5h4.1c4.4,0,7.8-0.6,10.2-1.9c2.3-1.3,4.1-3.6,5.2-6.9l2.5-6.8L219.6,42.7h33.8L269.3,99.8z"/>
			<path class="st0" d="M369,106.3l-8.9,8.9v28.9h-31.6V0h31.6v76.5l3.2-4.2l23.8-29.6H425l-35.5,41.7l37.9,59.7h-36.2L369,106.3z"
				/>
			<path class="st0" d="M429.3,92.4c-0.2-9.4,1.9-18.6,5.9-27c3.7-7.6,9.6-14,17-18.2c7.4-4.2,16-6.4,26-6.4
				c15.2,0,27.2,4.7,35.9,14.1c8.8,9.4,13.1,22.2,13.1,38.4v1.1c0,15.8-4.4,28.4-13.2,37.6S493.3,146,478.3,146
				c-14.4,0-26-4.3-34.8-13c-8.8-8.7-13.5-20.4-14.2-35.2L429.3,92.4z M460.9,94.4c0,9.4,1.5,16.3,4.4,20.6s7.3,6.6,13,6.6
				c11.3,0,17-8.7,17.3-26v-3.2c0-18.2-5.8-27.3-17.4-27.3c-10.6,0-16.3,7.8-17.2,23.5L460.9,94.4z"/>
		</g>
	</g>
</g>
<g>
	<path class="st0" d="M12.7,179.3l3.8-12.8h4.2l-6.2,18H11l-6.3-18h4.2L12.7,179.3z"/>
	<path class="st0" d="M23.2,161.8c0-0.6,0.2-1.1,0.6-1.6c0.4-0.4,1-0.6,1.7-0.6s1.3,0.2,1.7,0.6s0.6,0.9,0.6,1.6
		c0,0.6-0.2,1.1-0.6,1.5s-1,0.6-1.7,0.6s-1.3-0.2-1.7-0.6C23.4,162.9,23.2,162.4,23.2,161.8z M27.5,184.4h-4v-18h4V184.4z"/>
	<path class="st0" d="M42,179.6c0-0.7-0.3-1.3-0.9-1.6c-0.6-0.4-1.6-0.7-2.9-1c-1.4-0.3-2.5-0.7-3.4-1.1c-2-1-3-2.4-3-4.2
		c0-1.5,0.7-2.8,2-3.9c1.3-1,3-1.6,5-1.6c2.1,0,3.9,0.5,5.2,1.6c1.3,1.1,2,2.4,2,4.1h-4c0-0.8-0.3-1.4-0.9-1.9
		c-0.6-0.5-1.3-0.8-2.3-0.8c-0.9,0-1.6,0.2-2.2,0.6c-0.6,0.4-0.8,1-0.8,1.6c0,0.6,0.3,1.1,0.8,1.4c0.5,0.3,1.6,0.7,3.2,1
		c1.6,0.3,2.8,0.8,3.7,1.2c0.9,0.5,1.6,1.1,2,1.7c0.4,0.7,0.7,1.5,0.7,2.5c0,1.6-0.7,2.9-2,3.9c-1.3,1-3.1,1.5-5.3,1.5
		c-1.5,0-2.8-0.3-3.9-0.8c-1.2-0.5-2-1.3-2.7-2.2c-0.6-0.9-1-1.9-1-3H35c0.1,1,0.4,1.7,1.1,2.2c0.7,0.5,1.5,0.8,2.6,0.8
		c1.1,0,1.9-0.2,2.4-0.6C41.7,180.7,42,180.2,42,179.6z"/>
	<path class="st0" d="M60.3,182.7c-1.2,1.4-2.9,2.1-5,2.1c-1.9,0-3.4-0.6-4.4-1.7c-1-1.1-1.5-2.8-1.5-4.9v-11.6h4v11.6
		c0,2.3,0.9,3.4,2.8,3.4c2,0,3.3-0.7,4-2.1v-12.9h4v18h-3.8L60.3,182.7z"/>
	<path class="st0" d="M79.1,184.4c-0.2-0.3-0.3-0.9-0.5-1.7c-1.3,1.3-2.9,2-4.7,2c-1.8,0-3.3-0.5-4.4-1.5c-1.1-1-1.7-2.3-1.7-3.8
		c0-1.9,0.7-3.4,2.1-4.4c1.4-1,3.5-1.5,6.1-1.5h2.5v-1.2c0-0.9-0.3-1.7-0.8-2.2c-0.5-0.6-1.3-0.8-2.4-0.8c-0.9,0-1.7,0.2-2.3,0.7
		c-0.6,0.5-0.9,1-0.9,1.8h-4c0-1,0.3-1.9,1-2.8c0.7-0.9,1.5-1.5,2.7-2c1.1-0.5,2.4-0.7,3.8-0.7c2.1,0,3.8,0.5,5,1.6
		c1.3,1.1,1.9,2.5,1.9,4.5v8.1c0,1.6,0.2,2.9,0.7,3.9v0.3H79.1z M74.6,181.5c0.8,0,1.5-0.2,2.2-0.6c0.7-0.4,1.2-0.9,1.6-1.6V176
		h-2.2c-1.5,0-2.6,0.3-3.4,0.8c-0.8,0.5-1.1,1.3-1.1,2.2c0,0.8,0.3,1.4,0.8,1.9C73.1,181.3,73.8,181.5,74.6,181.5z"/>
	<path class="st0" d="M91,184.4h-4v-25.5h4V184.4z"/>
	<path class="st0" d="M95.4,161.8c0-0.6,0.2-1.1,0.6-1.6c0.4-0.4,1-0.6,1.7-0.6s1.3,0.2,1.7,0.6s0.6,0.9,0.6,1.6
		c0,0.6-0.2,1.1-0.6,1.5s-1,0.6-1.7,0.6s-1.3-0.2-1.7-0.6C95.6,162.9,95.4,162.4,95.4,161.8z M99.7,184.4h-4v-18h4V184.4z"/>
	<path class="st0" d="M108.4,181.2h9.6v3.2h-14.6v-2.6l9.1-12.1h-8.9v-3.3h14.1v2.6L108.4,181.2z"/>
	<path class="st0" d="M131.9,184.4c-0.2-0.3-0.3-0.9-0.5-1.7c-1.3,1.3-2.9,2-4.7,2c-1.8,0-3.3-0.5-4.4-1.5c-1.1-1-1.7-2.3-1.7-3.8
		c0-1.9,0.7-3.4,2.1-4.4c1.4-1,3.5-1.5,6.1-1.5h2.5v-1.2c0-0.9-0.3-1.7-0.8-2.2c-0.5-0.6-1.3-0.8-2.4-0.8c-0.9,0-1.7,0.2-2.3,0.7
		c-0.6,0.5-0.9,1-0.9,1.8h-4c0-1,0.3-1.9,1-2.8c0.7-0.9,1.5-1.5,2.7-2c1.1-0.5,2.4-0.7,3.8-0.7c2.1,0,3.8,0.5,5,1.6
		c1.3,1.1,1.9,2.5,1.9,4.5v8.1c0,1.6,0.2,2.9,0.7,3.9v0.3H131.9z M127.5,181.5c0.8,0,1.5-0.2,2.2-0.6c0.7-0.4,1.2-0.9,1.6-1.6V176
		h-2.2c-1.5,0-2.6,0.3-3.4,0.8c-0.8,0.5-1.1,1.3-1.1,2.2c0,0.8,0.3,1.4,0.8,1.9C125.9,181.3,126.6,181.5,127.5,181.5z"/>
	<path class="st0" d="M144.6,162.1v4.4h3.2v3h-3.2v10c0,0.7,0.1,1.2,0.4,1.5c0.3,0.3,0.8,0.5,1.5,0.5c0.5,0,0.9-0.1,1.4-0.2v3.1
		c-0.9,0.3-1.8,0.4-2.7,0.4c-3.1,0-4.6-1.7-4.6-5.1v-10.2h-3v-3h3v-4.4H144.6z"/>
	<path class="st0" d="M150.9,161.8c0-0.6,0.2-1.1,0.6-1.6c0.4-0.4,1-0.6,1.7-0.6s1.3,0.2,1.7,0.6s0.6,0.9,0.6,1.6
		c0,0.6-0.2,1.1-0.6,1.5s-1,0.6-1.7,0.6s-1.3-0.2-1.7-0.6C151.1,162.9,150.9,162.4,150.9,161.8z M155.2,184.4h-4v-18h4V184.4z"/>
	<path class="st0" d="M158.8,175.3c0-1.8,0.3-3.3,1-4.8c0.7-1.4,1.7-2.5,2.9-3.3c1.3-0.8,2.7-1.1,4.3-1.1c2.4,0,4.4,0.8,5.9,2.3
		s2.3,3.6,2.4,6.2l0,0.9c0,1.8-0.3,3.4-1,4.7s-1.7,2.5-2.9,3.2c-1.3,0.8-2.7,1.1-4.4,1.1c-2.5,0-4.6-0.8-6.1-2.5
		c-1.5-1.7-2.3-3.9-2.3-6.7V175.3z M162.8,175.6c0,1.8,0.4,3.3,1.1,4.3c0.8,1,1.8,1.6,3.2,1.6s2.4-0.5,3.2-1.6
		c0.8-1.1,1.1-2.6,1.1-4.7c0-1.8-0.4-3.3-1.2-4.3s-1.8-1.6-3.2-1.6c-1.3,0-2.4,0.5-3.1,1.6C163.2,172,162.8,173.6,162.8,175.6z"/>
	<path class="st0" d="M182.7,166.5l0.1,2.1c1.3-1.6,3.1-2.4,5.2-2.4c3.7,0,5.6,2.1,5.7,6.4v11.9h-4v-11.6c0-1.1-0.2-2-0.7-2.5
		c-0.5-0.5-1.3-0.8-2.4-0.8c-1.6,0-2.8,0.7-3.6,2.2v12.8h-4v-18H182.7z"/>
</g>
<g>
	<path class="st0" d="M321.3,179.6c0-0.7-0.3-1.3-0.9-1.6c-0.6-0.4-1.6-0.7-2.9-1s-2.5-0.7-3.4-1.1c-2-1-3-2.4-3-4.2
		c0-1.5,0.7-2.8,2-3.9s3-1.6,5-1.6c2.1,0,3.9,0.5,5.2,1.6c1.3,1.1,2,2.4,2,4.1h-4c0-0.8-0.3-1.4-0.9-1.9c-0.6-0.5-1.3-0.8-2.3-0.8
		c-0.9,0-1.6,0.2-2.2,0.6c-0.6,0.4-0.8,1-0.8,1.6c0,0.6,0.3,1.1,0.8,1.4s1.6,0.7,3.2,1c1.6,0.3,2.8,0.8,3.7,1.2
		c0.9,0.5,1.6,1.1,2,1.7c0.4,0.7,0.7,1.5,0.7,2.5c0,1.6-0.7,2.9-2,3.9c-1.3,1-3.1,1.5-5.3,1.5c-1.5,0-2.8-0.3-3.9-0.8
		s-2-1.3-2.7-2.2s-1-1.9-1-3h3.9c0.1,1,0.4,1.7,1.1,2.2c0.7,0.5,1.5,0.8,2.6,0.8c1.1,0,1.9-0.2,2.4-0.6
		C321.1,180.7,321.3,180.2,321.3,179.6z"/>
	<path class="st0" d="M333.9,162.1v4.4h3.2v3h-3.2v10c0,0.7,0.1,1.2,0.4,1.5c0.3,0.3,0.8,0.5,1.5,0.5c0.5,0,0.9-0.1,1.4-0.2v3.1
		c-0.9,0.3-1.8,0.4-2.7,0.4c-3.1,0-4.6-1.7-4.6-5.1v-10.2h-3v-3h3v-4.4H333.9z"/>
	<path class="st0" d="M351,182.7c-1.2,1.4-2.9,2.1-5,2.1c-1.9,0-3.4-0.6-4.4-1.7c-1-1.1-1.5-2.8-1.5-4.9v-11.6h4v11.6
		c0,2.3,0.9,3.4,2.8,3.4c2,0,3.3-0.7,4-2.1v-12.9h4v18h-3.8L351,182.7z"/>
	<path class="st0" d="M358.3,175.3c0-2.8,0.6-5,1.9-6.7c1.3-1.7,3-2.5,5.2-2.5c1.9,0,3.4,0.7,4.6,2v-9.2h4v25.5h-3.7l-0.2-1.9
		c-1.2,1.5-2.8,2.2-4.8,2.2c-2.1,0-3.8-0.8-5.1-2.5C358.9,180.5,358.3,178.2,358.3,175.3z M362.3,175.7c0,1.8,0.4,3.3,1.1,4.3
		c0.7,1,1.7,1.5,3,1.5c1.6,0,2.9-0.7,3.6-2.2v-7.7c-0.7-1.4-1.9-2.2-3.6-2.2c-1.3,0-2.3,0.5-3,1.6
		C362.6,172,362.3,173.6,362.3,175.7z"/>
	<path class="st0" d="M378.2,161.8c0-0.6,0.2-1.1,0.6-1.6c0.4-0.4,1-0.6,1.7-0.6s1.3,0.2,1.7,0.6s0.6,0.9,0.6,1.6
		c0,0.6-0.2,1.1-0.6,1.5s-1,0.6-1.7,0.6s-1.3-0.2-1.7-0.6C378.4,162.9,378.2,162.4,378.2,161.8z M382.5,184.4h-4v-18h4V184.4z"/>
	<path class="st0" d="M386.1,175.3c0-1.8,0.3-3.3,1-4.8c0.7-1.4,1.7-2.5,2.9-3.3c1.3-0.8,2.7-1.1,4.3-1.1c2.4,0,4.4,0.8,5.9,2.3
		s2.3,3.6,2.4,6.2l0,0.9c0,1.8-0.3,3.4-1,4.7s-1.7,2.5-2.9,3.2c-1.3,0.8-2.7,1.1-4.4,1.1c-2.5,0-4.6-0.8-6.1-2.5
		c-1.5-1.7-2.3-3.9-2.3-6.7V175.3z M390.2,175.6c0,1.8,0.4,3.3,1.1,4.3c0.8,1,1.8,1.6,3.2,1.6s2.4-0.5,3.2-1.6
		c0.8-1.1,1.1-2.6,1.1-4.7c0-1.8-0.4-3.3-1.2-4.3s-1.8-1.6-3.2-1.6c-1.3,0-2.4,0.5-3.1,1.6C390.6,172,390.2,173.6,390.2,175.6z"/>
</g>
</svg>
