<svg id="svg8" xmlns="http://www.w3.org/2000/svg" width="527.15625" height="191.68164" viewBox="0 0 527.15625 191.68164"><title>logo</title><g id="layer1"><g id="text12" style="isolation:isolate"><g style="isolation:isolate"><path d="M2.14258,180.418V43.918H51.17383q26.343,0,40.07813,9.65625,13.73291,9.657,13.73437,28.03125,0,10.59521-4.875,18.09375a28.40351,28.40351,0,0,1-14.34375,11.0625q10.6875,2.8125,16.40625,10.5,5.71729,7.6875,5.71875,18.75,0,20.0625-12.70312,30.14063Q82.48486,180.23047,57.54883,180.418Zm32.90625-79.59375H52.20508q10.77979-.09229,15.375-3.94922,4.59229-3.854,4.59375-11.37744,0-8.65063-4.96875-12.4585-4.97021-3.80786-16.03125-3.80859h-16.125Zm0,21.5625v32.71875h21.5625q8.90552,0,13.6875-4.07812,4.78125-4.07812,4.78125-11.48437,0-17.0625-16.96875-17.15625Z" transform="translate(-2.14258 -36.32422)" style="fill:#e8e8e8"/><path d="M120.54883,128.76172a59.87287,59.87287,0,0,1,5.90625-27.04688,42.24228,42.24228,0,0,1,16.96875-18.23438q11.061-6.37427,25.96875-6.375,22.78125,0,35.90625,14.10938,13.12427,14.11084,13.125,38.39063v1.125q0,23.71875-13.17187,37.64063Q192.07935,182.293,169.58008,182.293q-21.65625,0-34.78125-12.98437-13.12646-12.98437-14.15625-35.20312Zm31.59375,1.96875q0,14.0625,4.40625,20.625,4.40552,6.5625,13.03125,6.5625,16.875,0,17.25-25.96875v-3.1875q0-27.28125-17.4375-27.28125-15.84448,0-17.15625,23.53125Z" transform="translate(-2.14258 -36.32422)" style="fill:#e8e8e8"/><path d="M271.48633,136.168l16.875-57.1875h33.84375L280.86133,197.38672l-1.78125,4.3125q-8.8125,19.6875-31.125,19.6875a49.54853,49.54853,0,0,1-13.03125-1.86719V197.01172h4.125q6.65552,0,10.17188-1.92383,3.51563-1.9248,5.20313-6.89648l2.53125-6.75391-35.25-102.457h33.75Z" transform="translate(-2.14258 -36.32422)" style="fill:#e8e8e8"/><path d="M371.14258,142.63672l-8.90625,8.90625v28.875H330.64258V36.32422h31.59375v76.5l3.1875-4.21875,23.8125-29.625h37.875l-35.53125,41.71875,37.875,59.71875h-36.1875Z" transform="translate(-2.14258 -36.32422)" style="fill:#e8e8e8"/><path d="M431.42383,128.76172a59.87287,59.87287,0,0,1,5.90625-27.04688,42.24515,42.24515,0,0,1,16.96875-18.23438q11.061-6.37427,25.96875-6.375,22.78125,0,35.90625,14.10938,13.125,14.11084,13.125,38.39063v1.125q0,23.71875-13.17187,37.64063T480.45508,182.293q-21.65625,0-34.78125-12.98437-13.12646-12.98437-14.15625-35.20312Zm31.59375,1.96875q0,14.0625,4.40625,20.625t13.03125,6.5625q16.875,0,17.25-25.96875v-3.1875q0-27.28125-17.4375-27.28125-15.84375,0-17.15625,23.53125Z" transform="translate(-2.14258 -36.32422)" style="fill:#e8e8e8"/></g></g><g id="text16" style="isolation:isolate"><g style="isolation:isolate"><path d="M11.92578,208.97852l-4.15039-.748a6.46016,6.46016,0,0,1,2.40869-3.71094,8.80934,8.80934,0,0,1,5.07813-1.20508,10.95248,10.95248,0,0,1,4.55762.72461,4.54242,4.54242,0,0,1,2.10742,1.83887,9.42647,9.42647,0,0,1,.61035,4.09277l-.04883,5.33984a18.53073,18.53073,0,0,0,.21973,3.36035,9.78694,9.78694,0,0,0,.82227,2.31934h-4.5249q-.17944-.45557-.43945-1.35156-.11426-.40576-.1626-.53711a8.22858,8.22858,0,0,1-2.50684,1.709,7.15888,7.15888,0,0,1-2.84814.57031,5.88547,5.88547,0,0,1-4.20752-1.44922,4.81236,4.81236,0,0,1-1.53809-3.66211,4.90977,4.90977,0,0,1,.7002-2.61133,4.56293,4.56293,0,0,1,1.96094-1.75781,15.3074,15.3074,0,0,1,3.6377-1.06641,24.86919,24.86919,0,0,0,4.44336-1.123v-.45508a2.37107,2.37107,0,0,0-.65088-1.88086,3.90461,3.90461,0,0,0-2.45752-.56055,3.27808,3.27808,0,0,0-1.9043.47949A3.33737,3.33737,0,0,0,11.92578,208.97852Zm6.11963,3.71094a28.4062,28.4062,0,0,1-2.7832.69922,8.34088,8.34088,0,0,0-2.49023.79883,1.90435,1.90435,0,0,0-.895,1.61133,2.24436,2.24436,0,0,0,.71631,1.66016,2.5019,2.5019,0,0,0,1.82275.69922,3.95784,3.95784,0,0,0,2.35986-.81445,2.86077,2.86077,0,0,0,1.09082-1.51367,9.0358,9.0358,0,0,0,.17871-2.22852Z" transform="translate(-2.14258 -36.32422)" style="fill:#e8e8e8"/><path d="M31.4248,220.99023H26.85107V203.70508h4.248v2.457a7.40041,7.40041,0,0,1,1.96143-2.29492,3.61178,3.61178,0,0,1,1.97754-.55273,5.79512,5.79512,0,0,1,3.01074.86328l-1.416,3.98633a4.02065,4.02065,0,0,0-2.14844-.748,2.53335,2.53335,0,0,0-1.62744.5293,3.61574,3.61574,0,0,0-1.0498,1.91211,27.17866,27.17866,0,0,0-.38232,5.79492Z" transform="translate(-2.14258 -36.32422)" style="fill:#e8e8e8"/><path d="M55.08984,208.81641l-4.50879.8125a3.26645,3.26645,0,0,0-1.0332-2.0332,3.11492,3.11492,0,0,0-2.0918-.68359A3.41571,3.41571,0,0,0,44.73,208.0918a6.04617,6.04617,0,0,0-1.01709,3.94727q0,3.07617,1.0332,4.3457a3.39585,3.39585,0,0,0,2.77539,1.26953,3.08494,3.08494,0,0,0,2.13184-.74121,4.448,4.448,0,0,0,1.17188-2.54785l4.49219.76563a7.97316,7.97316,0,0,1-2.68555,4.67188,8.31635,8.31635,0,0,1-5.32227,1.57813,7.91,7.91,0,0,1-6.04639-2.39258,10.90319,10.90319,0,0,1,.0083-13.28906,8.0334,8.0334,0,0,1,6.11963-2.38477,8.34652,8.34652,0,0,1,5.021,1.35938A7.53238,7.53238,0,0,1,55.08984,208.81641Z" transform="translate(-2.14258 -36.32422)" style="fill:#e8e8e8"/><path d="M63.11377,197.12891v8.77344a6.85345,6.85345,0,0,1,8.13818-2.002,4.65183,4.65183,0,0,1,1.9126,1.498,5.43277,5.43277,0,0,1,.87891,2.01758,18.05577,18.05577,0,0,1,.23584,3.43359v10.14063H69.70557v-9.13086a13.53981,13.53981,0,0,0-.26025-3.45117,2.26576,2.26576,0,0,0-.91943-1.16309,2.95369,2.95369,0,0,0-1.65234-.43066,3.78658,3.78658,0,0,0-2.03418.55273,3.19667,3.19667,0,0,0-1.31055,1.668,9.978,9.978,0,0,0-.415,3.29688v8.6582H58.54053V197.12891Z" transform="translate(-2.14258 -36.32422)" style="fill:#e8e8e8"/><path d="M78.918,201.36133v-4.23242H83.4917v4.23242Zm0,19.62891V203.70508H83.4917v17.28516Z" transform="translate(-2.14258 -36.32422)" style="fill:#e8e8e8"/><path d="M96.10547,203.70508v3.64648h-3.125v6.96484a17.25084,17.25084,0,0,0,.08984,2.4668,1.00958,1.00958,0,0,0,.40674.57813,1.293,1.293,0,0,0,.77295.22656,5.918,5.918,0,0,0,1.83936-.43945l.39063,3.54883a9.10416,9.10416,0,0,1-3.61328.68359,5.73843,5.73843,0,0,1-2.23-.415,3.25188,3.25188,0,0,1-1.45654-1.07422,4.24922,4.24922,0,0,1-.64307-1.78223,22.16127,22.16127,0,0,1-.14648-3.22266v-7.53516H86.291v-3.64648h2.09961v-3.43359l4.58984-2.66992v6.10352Z" transform="translate(-2.14258 -36.32422)" style="fill:#e8e8e8"/><path d="M109.28906,215.48828l4.55713.76563a7.47246,7.47246,0,0,1-2.7749,3.81641,8.14893,8.14893,0,0,1-4.74463,1.31055q-4.50806,0-6.67285-2.94531a9.89784,9.89784,0,0,1-1.709-5.957,9.543,9.543,0,0,1,2.24609-6.73047,7.39352,7.39352,0,0,1,5.68018-2.43359,7.67572,7.67572,0,0,1,6.0874,2.54688q2.22949,2.54883,2.13184,7.80469h-11.458a4.6269,4.6269,0,0,0,1.10645,3.166,3.463,3.463,0,0,0,2.63672,1.13086,2.80007,2.80007,0,0,0,1.80664-.58594A3.61605,3.61605,0,0,0,109.28906,215.48828Zm.26025-4.62109a4.40116,4.40116,0,0,0-1.02539-3.01953,3.14385,3.14385,0,0,0-2.376-1.0332,3.17711,3.17711,0,0,0-2.47412,1.08984,4.2217,4.2217,0,0,0-.96045,2.96289Z" transform="translate(-2.14258 -36.32422)" style="fill:#e8e8e8"/><path d="M132.88965,208.81641l-4.50879.8125a3.26645,3.26645,0,0,0-1.0332-2.0332,3.11492,3.11492,0,0,0-2.0918-.68359,3.41571,3.41571,0,0,0-2.72607,1.17969,6.04617,6.04617,0,0,0-1.01709,3.94727q0,3.07617,1.0332,4.3457a3.39585,3.39585,0,0,0,2.77539,1.26953,3.08494,3.08494,0,0,0,2.13184-.74121,4.448,4.448,0,0,0,1.17188-2.54785l4.49219.76563a7.97316,7.97316,0,0,1-2.68555,4.67188,8.31635,8.31635,0,0,1-5.32227,1.57813,7.91,7.91,0,0,1-6.04639-2.39258,10.90319,10.90319,0,0,1,.0083-13.28906,8.0334,8.0334,0,0,1,6.11963-2.38477,8.34652,8.34652,0,0,1,5.021,1.35938A7.53238,7.53238,0,0,1,132.88965,208.81641Z" transform="translate(-2.14258 -36.32422)" style="fill:#e8e8e8"/><path d="M144.28223,203.70508v3.64648h-3.125v6.96484a17.25085,17.25085,0,0,0,.08984,2.4668,1.00958,1.00958,0,0,0,.40674.57813,1.293,1.293,0,0,0,.77295.22656,5.918,5.918,0,0,0,1.83936-.43945l.39063,3.54883a9.10416,9.10416,0,0,1-3.61328.68359,5.73843,5.73843,0,0,1-2.23-.415,3.25188,3.25188,0,0,1-1.45654-1.07422,4.24922,4.24922,0,0,1-.64307-1.78223,22.16126,22.16126,0,0,1-.14648-3.22266v-7.53516h-2.09961v-3.64648h2.09961v-3.43359l4.58984-2.66992v6.10352Z" transform="translate(-2.14258 -36.32422)" style="fill:#e8e8e8"/><path d="M158.8335,220.99023v-2.58789a6.67233,6.67233,0,0,1-2.48193,2.18164,6.9632,6.9632,0,0,1-3.24707.79688,6.33939,6.33939,0,0,1-3.125-.76562,4.51139,4.51139,0,0,1-2.002-2.14844,9.57915,9.57915,0,0,1-.61865-3.82422v-10.9375h4.57373v7.94336a22.03992,22.03992,0,0,0,.252,4.4668,2.4351,2.4351,0,0,0,.91992,1.30273,2.82366,2.82366,0,0,0,1.69238.48047,3.59774,3.59774,0,0,0,2.09961-.64355,3.26738,3.26738,0,0,0,1.26953-1.59473,18.51221,18.51221,0,0,0,.3418-4.66406v-7.291h4.57373v17.28516Z" transform="translate(-2.14258 -36.32422)" style="fill:#e8e8e8"/><path d="M172.19629,220.99023h-4.57373V203.70508h4.248v2.457a7.40041,7.40041,0,0,1,1.96143-2.29492,3.61178,3.61178,0,0,1,1.97754-.55273,5.79512,5.79512,0,0,1,3.01074.86328l-1.416,3.98633a4.02065,4.02065,0,0,0-2.14844-.748,2.53335,2.53335,0,0,0-1.62744.5293,3.61574,3.61574,0,0,0-1.0498,1.91211,27.17866,27.17866,0,0,0-.38232,5.79492Z" transform="translate(-2.14258 -36.32422)" style="fill:#e8e8e8"/><path d="M184.20752,208.97852l-4.15039-.748a6.46016,6.46016,0,0,1,2.40869-3.71094,8.80934,8.80934,0,0,1,5.07813-1.20508,10.95248,10.95248,0,0,1,4.55762.72461,4.54242,4.54242,0,0,1,2.10742,1.83887,9.42647,9.42647,0,0,1,.61035,4.09277l-.04883,5.33984a18.53073,18.53073,0,0,0,.21973,3.36035,9.78694,9.78694,0,0,0,.82227,2.31934h-4.5249q-.17944-.45557-.43945-1.35156-.11426-.40576-.1626-.53711a8.22858,8.22858,0,0,1-2.50684,1.709,7.15888,7.15888,0,0,1-2.84814.57031,5.88547,5.88547,0,0,1-4.20752-1.44922,4.81236,4.81236,0,0,1-1.53809-3.66211,4.90977,4.90977,0,0,1,.7002-2.61133,4.56293,4.56293,0,0,1,1.96094-1.75781,15.3074,15.3074,0,0,1,3.6377-1.06641,24.86919,24.86919,0,0,0,4.44336-1.123v-.45508a2.37107,2.37107,0,0,0-.65088-1.88086,3.90461,3.90461,0,0,0-2.45752-.56055,3.27808,3.27808,0,0,0-1.9043.47949A3.33737,3.33737,0,0,0,184.20752,208.97852Zm6.11963,3.71094a28.4062,28.4062,0,0,1-2.7832.69922,8.34088,8.34088,0,0,0-2.49023.79883,1.90435,1.90435,0,0,0-.895,1.61133,2.24436,2.24436,0,0,0,.71631,1.66016,2.5019,2.5019,0,0,0,1.82275.69922,3.95784,3.95784,0,0,0,2.35986-.81445,2.86077,2.86077,0,0,0,1.09082-1.51367,9.0358,9.0358,0,0,0,.17871-2.22852Z" transform="translate(-2.14258 -36.32422)" style="fill:#e8e8e8"/><path d="M199.32813,220.99023V197.12891h4.57373v23.86133Z" transform="translate(-2.14258 -36.32422)" style="fill:#e8e8e8"/><path d="M316.27051,208.81641l-4.50781.8125a3.26965,3.26965,0,0,0-1.03418-2.0332,3.114,3.114,0,0,0-2.09082-.68359,3.41536,3.41536,0,0,0-2.72656,1.17969,6.04307,6.04307,0,0,0-1.01758,3.94727q0,3.07617,1.03418,4.3457a3.3933,3.3933,0,0,0,2.77441,1.26953,3.08747,3.08747,0,0,0,2.13281-.74121,4.46044,4.46044,0,0,0,1.17188-2.54785l4.49219.76563a7.9782,7.9782,0,0,1-2.68555,4.67188,8.31915,8.31915,0,0,1-5.32227,1.57813,7.91108,7.91108,0,0,1-6.04687-2.39258,10.906,10.906,0,0,1,.00781-13.28906,8.0367,8.0367,0,0,1,6.12012-2.38477,8.35114,8.35114,0,0,1,5.02148,1.35938A7.52861,7.52861,0,0,1,316.27051,208.81641Z" transform="translate(-2.14258 -36.32422)" style="fill:#e8e8e8"/><path d="M318.68066,212.10352a9.34106,9.34106,0,0,1,1.123-4.41016,7.697,7.697,0,0,1,3.18164-3.25586,9.4484,9.4484,0,0,1,4.59766-1.123,8.63547,8.63547,0,0,1,6.42969,2.54688,8.80208,8.80208,0,0,1,2.50586,6.4375,8.90533,8.90533,0,0,1-2.53027,6.502,8.552,8.552,0,0,1-6.37207,2.58008,10.02739,10.02739,0,0,1-4.5332-1.07422,7.36772,7.36772,0,0,1-3.2793-3.14941A10.48862,10.48862,0,0,1,318.68066,212.10352Zm4.6875.24414a5.72574,5.72574,0,0,0,1.2207,3.93945,3.99,3.99,0,0,0,6.01367,0,5.80892,5.80892,0,0,0,1.21289-3.97266,5.70192,5.70192,0,0,0-1.21289-3.90625,3.99,3.99,0,0,0-6.01367,0A5.72574,5.72574,0,0,0,323.36816,212.34766Z" transform="translate(-2.14258 -36.32422)" style="fill:#e8e8e8"/><path d="M339.75781,203.70508h4.21582v2.35938a6.78339,6.78339,0,0,1,5.38672-2.75,5.80668,5.80668,0,0,1,2.88086.68359,5.2434,5.2434,0,0,1,2.002,2.06641,7.9833,7.9833,0,0,1,2.458-2.06641,6.037,6.037,0,0,1,2.81543-.68359,6.26935,6.26935,0,0,1,3.22266.77344,4.73915,4.73915,0,0,1,1.96973,2.26953,9.861,9.861,0,0,1,.47168,3.582v11.05078h-4.57324v-9.87891a7.35046,7.35046,0,0,0-.47168-3.32031,2.16449,2.16449,0,0,0-1.95312-.97656,3.11438,3.11438,0,0,0-1.80664.58594,3.24622,3.24622,0,0,0-1.2207,1.7168,12.33324,12.33324,0,0,0-.375,3.57227v8.30078H350.207v-9.47266a13.1304,13.1304,0,0,0-.24414-3.25586,2.07561,2.07561,0,0,0-.75684-1.08984,2.39574,2.39574,0,0,0-1.3916-.35742,3.33955,3.33955,0,0,0-1.9043.56836,3.12766,3.12766,0,0,0-1.21289,1.64453,12.22185,12.22185,0,0,0-.36621,3.56445v8.39844h-4.57324Z" transform="translate(-2.14258 -36.32422)" style="fill:#e8e8e8"/><path d="M369.6084,203.70508h4.26367v2.53906a6.38172,6.38172,0,0,1,2.24609-2.11523,6.18871,6.18871,0,0,1,3.1416-.81445,6.59261,6.59261,0,0,1,5.11035,2.35938,9.55178,9.55178,0,0,1,2.09961,6.57617,9.84443,9.84443,0,0,1-2.11523,6.73047,6.59617,6.59617,0,0,1-5.127,2.40039,5.81483,5.81483,0,0,1-2.59668-.57031,8.73314,8.73314,0,0,1-2.44922-1.95312v8.709H369.6084Zm4.52441,8.34961a6.65644,6.65644,0,0,0,1.15527,4.30469,3.53623,3.53623,0,0,0,2.81641,1.39258,3.30282,3.30282,0,0,0,2.65234-1.27832,6.58325,6.58325,0,0,0,1.05859-4.19043,6.25145,6.25145,0,0,0-1.09082-4.03711,3.37466,3.37466,0,0,0-2.70215-1.31836,3.51118,3.51118,0,0,0-2.7832,1.29395A5.76074,5.76074,0,0,0,374.13281,212.05469Z" transform="translate(-2.14258 -36.32422)" style="fill:#e8e8e8"/><path d="M393.51758,208.97852l-4.15039-.748a6.46073,6.46073,0,0,1,2.40918-3.71094,8.80722,8.80722,0,0,1,5.07813-1.20508,10.94887,10.94887,0,0,1,4.55664.72461,4.54764,4.54764,0,0,1,2.1084,1.83887,9.44154,9.44154,0,0,1,.61035,4.09277l-.04883,5.33984a18.53073,18.53073,0,0,0,.21973,3.36035,9.8029,9.8029,0,0,0,.82129,2.31934h-4.52441q-.17871-.45557-.43945-1.35156c-.07617-.27051-.12988-.44922-.16309-.53711a8.22472,8.22472,0,0,1-2.50586,1.709,7.16638,7.16638,0,0,1-2.84863.57031,5.885,5.885,0,0,1-4.207-1.44922,4.81236,4.81236,0,0,1-1.53809-3.66211,4.90913,4.90913,0,0,1,.69922-2.61133,4.56272,4.56272,0,0,1,1.96191-1.75781,15.29311,15.29311,0,0,1,3.6377-1.06641,24.90472,24.90472,0,0,0,4.44336-1.123v-.45508a2.37287,2.37287,0,0,0-.65137-1.88086,3.90533,3.90533,0,0,0-2.458-.56055,3.28019,3.28019,0,0,0-1.9043.47949A3.34315,3.34315,0,0,0,393.51758,208.97852Zm6.12012,3.71094a28.40621,28.40621,0,0,1-2.7832.69922,8.34088,8.34088,0,0,0-2.49023.79883,1.9026,1.9026,0,0,0-.89551,1.61133,2.24387,2.24387,0,0,0,.71582,1.66016,2.503,2.503,0,0,0,1.82324.69922,3.96138,3.96138,0,0,0,2.36035-.81445,2.86407,2.86407,0,0,0,1.08984-1.51367,9.02115,9.02115,0,0,0,.17969-2.22852Z" transform="translate(-2.14258 -36.32422)" style="fill:#e8e8e8"/><path d="M424.36035,220.99023h-4.57324V212.168a13.64154,13.64154,0,0,0-.293-3.62109,2.54333,2.54333,0,0,0-.95215-1.27734,2.72242,2.72242,0,0,0-1.58691-.45508,3.67118,3.67118,0,0,0-2.13281.65039,3.28479,3.28479,0,0,0-1.29395,1.72461,14.92578,14.92578,0,0,0-.34961,3.97266v7.82813h-4.57324V203.70508h4.248v2.53906a7.08384,7.08384,0,0,1,8.46289-2.38477,4.63285,4.63285,0,0,1,1.89648,1.39258,5.03872,5.03872,0,0,1,.89551,1.91992,14.31148,14.31148,0,0,1,.252,3.07617Z" transform="translate(-2.14258 -36.32422)" style="fill:#e8e8e8"/><path d="M426.834,203.70508h4.86719l4.13379,12.27148,4.03613-12.27148h4.73633l-6.10352,16.63477-1.08984,3.00977a12.35628,12.35628,0,0,1-1.14746,2.3125,5.00016,5.00016,0,0,1-1.25391,1.293,5.479,5.479,0,0,1-1.74121.77344,9.04234,9.04234,0,0,1-2.33594.27734,12.113,12.113,0,0,1-2.58789-.27734l-.40625-3.58008a10.14122,10.14122,0,0,0,1.93652.21094,2.87421,2.87421,0,0,0,2.36035-.93555,6.51056,6.51056,0,0,0,1.17188-2.38477Z" transform="translate(-2.14258 -36.32422)" style="fill:#e8e8e8"/></g></g></g></svg>